<svg width="212" height="201" viewBox="0 0 212 201" fill="none" xmlns="http://www.w3.org/2000/svg">
<path d="M209.122 97.4454C210.568 146.213 173.31 187.672 123.55 195.696C118.897 196.443 114.128 196.903 109.277 197.047C103.678 197.213 98.1666 196.957 92.7879 196.304C43.6646 190.353 5.12956 151.596 3.70405 103.539C2.1222 50.2104 46.8288 5.61272 103.556 3.93005C160.283 2.24739 207.554 44.1168 209.136 97.445L209.122 97.4454Z" fill="#383D38"/>
<path d="M120.149 81.0424L120.773 102.077L148.453 101.256L144.911 129.722L121.614 130.413L123.55 195.696C118.898 196.443 114.128 196.903 109.277 197.047C103.678 197.213 98.1671 196.957 92.7884 196.304L90.861 131.325L65.3331 132.082L64.4926 103.747L90.0205 102.99L89.2571 77.2524C88.7834 61.285 102.167 47.9268 119.159 47.4228L119.16 47.4363C119.21 47.4348 119.253 47.42 119.303 47.4185L146.839 46.6017L147.566 71.1076L129.573 71.6413C124.226 71.7999 120.007 76.0084 120.156 81.0354L120.149 81.0424Z" fill="white"/>
</svg>
