<svg width="224" height="224" viewBox="0 0 224 224" fill="none" xmlns="http://www.w3.org/2000/svg">
<path d="M107.199 5.31188L106.714 5.33395C48.0414 8.00433 2.64363 57.7464 5.3148 116.436L5.33688 116.921C8.00805 175.61 57.7367 221.023 116.409 218.352L116.894 218.33C175.566 215.66 220.964 165.918 218.293 107.229L218.271 106.743C215.599 48.0539 165.871 2.64149 107.199 5.31188Z" fill="#383D38"/>
<path d="M141.88 47.1613L75.9851 50.1604C57.7805 50.9889 43.645 66.4772 44.4738 84.6871L47.2183 144.989C48.0471 163.199 63.5312 177.339 81.7357 176.51L147.63 173.511C165.835 172.683 179.97 157.194 179.142 138.984L176.397 78.6828C175.568 60.4729 160.084 46.3327 141.88 47.1613ZM56.1202 84.157C55.5839 72.3728 64.7346 62.3464 76.5153 61.8102L142.41 58.8111C154.191 58.2749 164.214 67.4287 164.751 79.2128L167.495 139.514C168.031 151.299 158.881 161.325 147.1 161.861L81.2055 164.86C69.4248 165.397 59.4011 156.243 58.8647 144.459L56.1202 84.157Z" fill="white"/>
<path d="M113.206 142.546C130.134 141.776 143.288 127.372 142.517 110.431C141.745 93.4894 127.346 80.3394 110.409 81.1103C93.4733 81.8811 80.3275 96.2848 81.0986 113.226C81.8696 130.167 96.2695 143.317 113.206 142.546ZM110.94 92.7676C121.452 92.2891 130.392 100.453 130.87 110.968C131.349 121.484 123.188 130.425 112.676 130.904C102.163 131.382 93.224 123.219 92.7454 112.703C92.2668 102.188 100.428 93.246 110.94 92.7676Z" fill="white"/>
<path d="M144.187 84.5462C148.746 84.3387 152.292 80.4604 152.084 75.893C151.876 71.3256 148 67.7852 143.434 67.993C138.867 68.2008 135.328 72.0788 135.536 76.6462C135.744 81.2136 139.621 84.754 144.187 84.5462Z" fill="white"/>
</svg>
