<svg width="162" height="162" viewBox="0 0 162 162" fill="none" xmlns="http://www.w3.org/2000/svg">
<path d="M83.0824 2.1604L82.7238 2.15139C39.3235 1.06124 3.2565 35.3708 2.16602 78.7838L2.15701 79.1427C1.06653 122.556 35.3655 158.633 78.7658 159.723L79.1245 159.732C122.525 160.822 158.592 126.513 159.682 83.0995L159.691 82.7407C160.782 39.3276 126.483 3.25056 83.0824 2.1604Z" fill="#383D38"/>
<path d="M40.3919 53.4941C38.3652 51.5153 37.3931 49.1046 37.4644 46.267C37.5357 43.4295 38.6357 40.9658 40.7538 39.0856C42.8773 37.2111 45.5727 36.3121 48.8454 36.3943C52.1181 36.4765 54.6602 37.5071 56.6813 39.4857C58.708 41.4645 59.6791 43.9139 59.606 46.8232C59.533 49.7325 58.4374 52.0195 56.3194 53.8942C54.1959 55.7687 51.5391 56.6687 48.3382 56.5883C45.1372 56.5079 42.4186 55.4729 40.3919 53.4941ZM57.4049 64.9805L55.9212 124.05L37.2619 123.581L38.7456 64.5118L57.4049 64.9805Z" fill="#FEFFFC"/>
<path d="M119.373 72.3758C123.33 76.8944 125.208 83.007 125.014 90.7246L124.161 124.72L106.44 124.275L107.233 92.6754C107.331 88.7834 106.397 85.7328 104.437 83.5292C102.476 81.3256 99.7884 80.1754 96.3887 80.09C92.9891 80.0046 90.2467 81.0129 88.1781 83.1208C86.1096 85.2232 85.0237 88.2231 84.9259 92.115L84.1322 123.714L66.3063 123.267L67.768 65.075L85.5939 65.5228L85.4 73.2404C87.2693 70.7132 89.7543 68.7428 92.8493 67.3236C95.9443 65.9043 99.4013 65.2454 103.226 65.3415C110.036 65.5125 115.422 67.8574 119.373 72.3703L119.373 72.3758Z" fill="#FEFFFC"/>
</svg>
