<svg width="168" height="168" viewBox="0 0 168 168" fill="none" xmlns="http://www.w3.org/2000/svg">
<path d="M162.867 79.2829C165.382 119.008 138.023 153.713 100.119 161.463C96.5743 162.185 92.9323 162.676 89.2188 162.911C84.9324 163.182 80.7015 163.107 76.5605 162.705C38.7412 159.046 8.09081 128.384 5.61267 89.2379C2.86275 45.7986 35.8396 8.35332 79.2661 5.6042C122.693 2.85509 160.128 35.8429 162.878 79.2823L162.867 79.2829Z" fill="#383D38"/>
<path d="M34.719 43.2563L74.0533 89.4592L40.0596 131.202L48.2744 130.682L78.0391 94.1371L106.037 127.025L133.987 125.256L92.4414 76.4539L124.084 37.5991L115.87 38.1191L88.4612 71.7757L62.6747 41.4866L34.7245 43.256L34.719 43.2563ZM47.1791 48.5431L60.0164 47.7304L121.516 119.97L108.679 120.782L47.1791 48.5431Z" fill="white"/>
</svg>
