<svg width="159" height="159" viewBox="0 0 159 159" fill="none" xmlns="http://www.w3.org/2000/svg">
<path d="M158.008 80.14C158.18 36.738 123.146 1.41412 79.7567 1.24195C36.3675 1.06978 1.05388 36.1145 0.881659 79.5165C0.709436 122.919 35.7438 158.242 79.133 158.415C122.522 158.587 157.836 123.542 158.008 80.14Z" fill="#383D38"/>
<path d="M128.979 63.7396C128.385 57.7677 127.081 51.1634 122.198 47.676C118.416 44.9717 113.431 44.8525 108.777 44.8395C98.9393 44.8005 89.0961 44.778 79.2584 44.7445C69.7961 44.718 60.3338 44.686 50.8715 44.6595C46.9188 44.6438 43.0777 44.3248 39.3997 46.0221C36.2417 47.4785 33.7629 50.263 32.2655 53.3661C30.1892 57.6818 29.7392 62.5782 29.4718 67.3595C28.979 76.0662 28.994 84.7969 29.506 93.5021C29.8838 99.8542 30.8773 106.877 35.769 110.944C40.105 114.545 46.2431 114.746 51.8851 114.774C69.7938 114.862 87.708 114.95 105.622 115.032C107.919 115.046 110.315 115.012 112.657 114.767C117.263 114.288 121.657 112.986 124.629 109.585C127.63 106.156 128.416 101.372 128.887 96.8398C130.034 85.844 130.067 74.7388 128.979 63.7396ZM68.7015 95.2039L68.8238 64.3624L95.4602 79.8863L68.7015 95.2039Z" fill="white"/>
</svg>
